<svg xmlns="http://www.w3.org/2000/svg" viewBox="0 0 159.31 44.33">
    <defs>
        <style>.clase-1{font-size:10.27px;font-family:Ebrima-Bold,
            Ebrima;font-weight:700;}.clase-1,.azul{fill:#0e80c1;}.clase-2{fill:#f5a309;}</style>
    </defs>
    <g id="Capa_2" data-name="Capa 2">
        <g id="Capa_7" data-name="Capa 7">
            <g id="Botonera_Inferior" data-name="Botonera Inferior">
                <text class="clase-1" transform="matrix(0.98, 0, -0.17, 0.98, 30.99, 41.1)">Logística
                    &amp; Postal</text>
                <polygon class="clase-2"
                    points="145.2 28.2 15.18 28.2 14.11 29.96 144.11 29.96 145.2 28.2"></polygon>
                <polygon class="azul"
                    points="51.11 17.98 50.24 22.87 61.11 22.87 64.23 17.93 51.11 17.98"></polygon>
                <polygon class="azul"
                    points="69.98 14.13 67.97 17.92 81.64 17.77 82.62 13.98 69.98 14.13"></polygon>
                <polygon class="azul" points="76 0.18 79.95 0.18 67.75 22.87 62.39 22.87 76 0.18"></polygon>
                <polygon class="azul" points="79.95 0.18 76 0.18 79.01 22.87 84.73 22.87 79.95 0.18"></polygon>
                <polygon class="azul"
                    points="116.75 13.98 153.31 13.98 156.36 9.1 116.75 9.1 116.75 13.98"></polygon>
                <polygon class="azul"
                    points="120.22 7.31 157.54 7.31 159.31 4.48 119.81 4.48 120.22 7.31"></polygon>
                <polygon class="azul"
                    points="38.91 0.23 43.88 0.23 39.84 22.87 34.88 22.87 38.91 0.23"></polygon>
                <polygon class="azul" points="38.9 0.23 38.16 4.48 51.8 4.48 52.55 0.18 38.9 0.23"></polygon>
                <polygon class="azul" points="38.91 9.1 38.04 14.02 47.86 13.97 50.95 9.1 38.91 9.1"></polygon>
                <polygon class="azul"
                    points="105.45 9.14 104.58 14.01 118.23 13.96 119.1 9.09 105.45 9.14"></polygon>
                <polygon class="azul"
                    points="54.28 0.18 59.24 0.18 55.2 22.87 50.24 22.87 54.28 0.18"></polygon>
                <polygon class="azul"
                    points="106.81 0.18 111.77 0.18 107.73 22.87 102.77 22.87 106.81 0.18"></polygon>
                <polygon class="azul"
                    points="117.73 0.18 122.7 0.18 118.66 22.87 113.69 22.87 117.73 0.18"></polygon>
                <polygon class="azul" points="39.38 9.1 3.05 9.1 0 13.98 36.72 13.98 39.38 9.1"></polygon>
                <polygon class="azul" points="40.42 4.46 5.99 4.46 4.23 7.29 40.83 7.29 40.42 4.46"></polygon>
                <path class="azul"
                    d="M97,0a11.62,11.62,0,0,0-7.74,2.42C86.72,4.6,86,8.52,88.06,10.91c1.34,1.51,3.35,2.09,5.67,2.75l-3.4-6.92Z"></path>
                <path class="azul"
                    d="M99.82,10.22a18.66,18.66,0,0,0-3.1-1.16c-.73-.19-1.33-.32-3.19-.83a1.66,1.66,0,0,1-.74-2.8,4.24,4.24,0,0,1,3.29-1.31h.06l.4,0a4.9,4.9,0,0,1,1.22.23l.1,0h0A4.09,4.09,0,0,1,100,6.51l3.51-2.91A8.08,8.08,0,0,0,96.64,0a8.92,8.92,0,0,0-6.17,2.15,7.88,7.88,0,0,0-2.77,5,5.44,5.44,0,0,0,.43,3.07A4.59,4.59,0,0,0,90,12.27a15.47,15.47,0,0,0,3.5,1.34,11.06,11.06,0,0,1,3.08,1.16,1.57,1.57,0,0,1,.51,1.55A2.64,2.64,0,0,1,96,18.17a4.53,4.53,0,0,1-2.73.74c-2.53,0-3.51-.71-5.09-3l-3.32,2.64a9.59,9.59,0,0,0,2,2.62A8.72,8.72,0,0,0,92.54,23a10.5,10.5,0,0,0,6.87-2.11,7.78,7.78,0,0,0,3-5.25,5.77,5.77,0,0,0-.43-3.31A4.68,4.68,0,0,0,99.82,10.22Z"></path>
            </g>
        </g>
    </g>
</svg>