<svg width="0" height="0" class="hidden">
  <symbol fill="none" xmlns="http://www.w3.org/2000/svg" viewBox="0 0 12 16" id="note">
    <path d="M0 2C0 0.90625 0.875 0 2 0H10C11.0938 0 12 0.90625 12 2V14C12 15.125 11.0938 16 10 16H2C0.875 16 0 15.125 0 14V2ZM2 4.5C2 4.78125 2.21875 5 2.5 5H9.5C9.75 5 10 4.78125 10 4.5C10 4.25 9.75 4 9.5 4H2.5C2.21875 4 2 4.25 2 4.5ZM2.5 7C2.21875 7 2 7.25 2 7.5C2 7.78125 2.21875 8 2.5 8H9.5C9.75 8 10 7.78125 10 7.5C10 7.25 9.75 7 9.5 7H2.5ZM2.5 10C2.21875 10 2 10.25 2 10.5C2 10.7812 2.21875 11 2.5 11H6.5C6.75 11 7 10.7812 7 10.5C7 10.25 6.75 10 6.5 10H2.5Z" fill="#1F7CBF"></path>
  </symbol>
  <symbol fill="none" xmlns="http://www.w3.org/2000/svg" viewBox="0 0 17 14" id="logout">
    <path d="M15.6875 7.71875L11.6875 11.7188C11.3125 12.125 10.6562 12.125 10.2812 11.7188C9.875 11.3438 9.875 10.6875 10.2812 10.3125L12.5625 8H6C5.4375 8 5 7.5625 5 7C5 6.46875 5.4375 6 6 6H12.5625L10.2812 3.71875C9.875 3.34375 9.875 2.6875 10.2812 2.3125C10.6562 1.90625 11.3125 1.90625 11.6875 2.3125L15.6875 6.3125C16.0938 6.6875 16.0938 7.34375 15.6875 7.71875ZM5 2H3C2.4375 2 2 2.46875 2 3V11C2 11.5625 2.4375 12 3 12H5C5.53125 12 6 12.4688 6 13C6 13.5625 5.53125 14 5 14H3C1.34375 14 0 12.6562 0 11V3C0 1.34375 1.34375 0 3 0H5C5.53125 0 6 0.46875 6 1C6 1.5625 5.53125 2 5 2Z" fill="white"></path>
  </symbol>
  <symbol fill="none" xmlns="http://www.w3.org/2000/svg" viewBox="0 0 12 17" id="location">
    <path d="M6.71875 15.625C6.34375 16.0938 5.625 16.0938 5.25 15.625C3.65625 13.5938 0 8.75 0 6C0 2.6875 2.6875 0 6 0C9.3125 0 12 2.6875 12 6C12 8.75 8.34375 13.5938 6.71875 15.625ZM6 4C5.28125 4 4.625 4.40625 4.25 5C3.90625 5.625 3.90625 6.40625 4.25 7C4.625 7.625 5.28125 8 6 8C6.6875 8 7.34375 7.625 7.71875 7C8.0625 6.40625 8.0625 5.625 7.71875 5C7.34375 4.40625 6.6875 4 6 4Z" fill="#1F7CBF"></path>
  </symbol>
  <symbol fill="none" xmlns="http://www.w3.org/2000/svg" viewBox="0 0 18 14" id="envelopes">
    <path d="M9.875 6.8125L3 1.71875C3.15625 0.75 3.96875 0 5 0H16C17 0 17.8125 0.75 17.9688 1.71875L11.0938 6.8125C10.9062 6.9375 10.6875 7 10.5 7C10.2812 7 10.0625 6.9375 9.875 6.8125ZM11.6875 7.625L18 2.9375V9C18 10.125 17.0938 11 16 11H5C3.875 11 3 10.125 3 9V2.9375L9.28125 7.625C9.625 7.875 10.0625 8 10.5 8C10.9062 8 11.3438 7.875 11.6875 7.625ZM1.5 2.75V9.75C1.5 11.2812 2.71875 12.5 4.25 12.5H14.25C14.6562 12.5 15 12.8438 15 13.25C15 13.6875 14.6562 14 14.25 14H4.25C1.875 14 0 12.125 0 9.75V2.75C0 2.34375 0.3125 2 0.75 2C1.15625 2 1.5 2.34375 1.5 2.75Z" fill="#1F7CBF"></path>
  </symbol>
  <symbol fill="none" xmlns="http://www.w3.org/2000/svg" viewBox="0 0 16 14" id="box-archive">
    <path d="M1 0H15C15.5312 0 16 0.46875 16 1V2C16 2.5625 15.5312 3 15 3H1C0.4375 3 0 2.5625 0 2V1C0 0.46875 0.4375 0 1 0ZM1 4H15V12C15 13.125 14.0938 14 13 14H3C1.875 14 1 13.125 1 12V4ZM5 6.5C5 6.78125 5.21875 7 5.5 7H10.5C10.75 7 11 6.78125 11 6.5C11 6.25 10.75 6 10.5 6H5.5C5.21875 6 5 6.25 5 6.5Z" fill="#1F7CBF"></path>
  </symbol>
  <symbol fill="none" xmlns="http://www.w3.org/2000/svg" viewBox="0 0 18 15" id="bars">
    <path d="M0 1.25C0 0.585938 0.546875 0 1.25 0H16.25C16.9141 0 17.5 0.585938 17.5 1.25C17.5 1.95312 16.9141 2.5 16.25 2.5H1.25C0.546875 2.5 0 1.95312 0 1.25ZM0 7.5C0 6.83594 0.546875 6.25 1.25 6.25H16.25C16.9141 6.25 17.5 6.83594 17.5 7.5C17.5 8.20312 16.9141 8.75 16.25 8.75H1.25C0.546875 8.75 0 8.20312 0 7.5ZM17.5 13.75C17.5 14.4531 16.9141 15 16.25 15H1.25C0.546875 15 0 14.4531 0 13.75C0 13.0859 0.546875 12.5 1.25 12.5H16.25C16.9141 12.5 17.5 13.0859 17.5 13.75Z" fill="black"></path>
  </symbol>
  <symbol fill="none" xmlns="http://www.w3.org/2000/svg" viewBox="0 0 14 16" id="user">
    <path d="M7 8C5.5625 8 4.25 7.25 3.53125 6C2.8125 4.78125 2.8125 3.25 3.53125 2C4.25 0.78125 5.5625 0 7 0C8.40625 0 9.71875 0.78125 10.4375 2C11.1562 3.25 11.1562 4.78125 10.4375 6C9.71875 7.25 8.40625 8 7 8ZM5.5625 9.5H8.40625C11.5 9.5 14 12 14 15.0938C14 15.5938 13.5625 16 13.0625 16H0.90625C0.40625 16 0 15.5938 0 15.0938C0 12 2.46875 9.5 5.5625 9.5Z" fill="black"></path>
  </symbol>
  <symbol fill="none" xmlns="http://www.w3.org/2000/svg" viewBox="0 0 18 16" id="home">
    <path d="M17.9688 8C17.9688 8.5625 17.5 9 16.9688 9H15.9688L16 14C16 14.0938 16 14.1875 16 14.25V14.75C16 15.4688 15.4375 16 14.75 16H14.25C14.1875 16 14.1562 16 14.125 16C14.0938 16 14.0312 16 14 16H13H12.25C11.5312 16 11 15.4688 11 14.75V14V12C11 11.4688 10.5312 11 10 11H8C7.4375 11 7 11.4688 7 12V14V14.75C7 15.4688 6.4375 16 5.75 16H5H4C3.9375 16 3.90625 16 3.84375 16C3.8125 16 3.78125 16 3.75 16H3.25C2.53125 16 2 15.4688 2 14.75V11.25C2 11.25 2 11.2188 2 11.1875V9H1C0.4375 9 0 8.5625 0 8C0 7.71875 0.09375 7.46875 0.3125 7.25L8.3125 0.25C8.53125 0.03125 8.78125 0 9 0C9.21875 0 9.46875 0.0625 9.65625 0.21875L17.625 7.25C17.875 7.46875 18 7.71875 17.9688 8Z" fill="#1F7CBF"></path>
  </symbol>
  <symbol fill="none" xmlns="http://www.w3.org/2000/svg" viewBox="0 0 13 8" id="chevron-down">
    <path d="M5.40625 6.8125L0.40625 1.8125C0 1.4375 0 0.78125 0.40625 0.40625C0.78125 0 1.4375 0 1.8125 0.40625L6.125 4.6875L10.4062 0.40625C10.7812 0 11.4375 0 11.8125 0.40625C12.2188 0.78125 12.2188 1.4375 11.8125 1.8125L6.8125 6.8125C6.4375 7.21875 5.78125 7.21875 5.40625 6.8125Z" fill="#1F7CBF"/>
  </symbol>
  <symbol fill="none" xmlns="http://www.w3.org/2000/svg" viewBox="0 0 12 16" id="file-upload">
    <path d="M2 0H7V4C7 4.5625 7.4375 5 8 5H12V14C12 15.125 11.0938 16 10 16H2C0.875 16 0 15.125 0 14V2C0 0.90625 0.875 0 2 0ZM8 0L12 4H8V0ZM6.75 12.75V9.5625L7.71875 10.5312C8 10.8438 8.46875 10.8438 8.78125 10.5312C9.0625 10.25 9.0625 9.78125 8.78125 9.46875L6.53125 7.21875C6.21875 6.9375 5.75 6.9375 5.46875 7.21875L3.21875 9.46875C2.90625 9.78125 2.90625 10.25 3.21875 10.5312C3.5 10.8438 3.96875 10.8438 4.28125 10.5312L5.25 9.5625V12.75C5.25 13.1875 5.5625 13.5 6 13.5C6.40625 13.5 6.75 13.1875 6.75 12.75Z" fill="white"/>
  </symbol>
  <symbol fill="none" xmlns="http://www.w3.org/2000/svg" viewBox="0 0 18 24" id="file-download">
    <path d="M3 0H10.5V6C10.5 6.84375 11.1562 7.5 12 7.5H18V21C18 22.6875 16.6406 24 15 24H3C1.3125 24 0 22.6875 0 21V3C0 1.35938 1.3125 0 3 0ZM12 0L18 6H12V0ZM10.125 19.125V14.3438L11.5781 15.7969C12 16.2656 12.7031 16.2656 13.1719 15.7969C13.5938 15.375 13.5938 14.6719 13.1719 14.2031L9.79688 10.8281C9.32812 10.4062 8.625 10.4062 8.20312 10.8281L4.82812 14.2031C4.35938 14.6719 4.35938 15.375 4.82812 15.7969C5.25 16.2656 5.95312 16.2656 6.42188 15.7969L7.875 14.3438V19.125C7.875 19.7812 8.34375 20.25 9 20.25C9.60938 20.25 10.125 19.7812 10.125 19.125Z" fill="#8D8D8D"/>
  </symbol>
  <symbol fill="none" xmlns="http://www.w3.org/2000/svg" viewBox="0 0 26 24" id="check-circle">
    <path d="M12.5625 24C8.25 24 4.3125 21.75 2.15625 18C0 14.2969 0 9.75 2.15625 6C4.3125 2.29688 8.25 0 12.5625 0C16.8281 0 20.7656 2.29688 22.9219 6C25.0781 9.75 25.0781 14.2969 22.9219 18C20.7656 21.75 16.8281 24 12.5625 24ZM17.8594 9.79688H17.8125C18.2812 9.375 18.2812 8.67188 17.8125 8.20312C17.3906 7.78125 16.6875 7.78125 16.2656 8.20312L11.0625 13.4531L8.85938 11.25C8.39062 10.7812 7.6875 10.7812 7.26562 11.25C6.79688 11.6719 6.79688 12.375 7.26562 12.7969L10.2656 15.7969C10.6875 16.2656 11.3906 16.2656 11.8594 15.7969L17.8594 9.79688Z" fill="#1F7CBF"/>
  </symbol>
</svg>